<svg id="Capa_1" data-name="Capa 1" xmlns="http://www.w3.org/2000/svg" viewBox="0 0 425.2 198.43"><defs><style>.cls-1{fill:#90bbc9;}.cls-2{fill:#007191;}</style></defs><title>ediciones</title><path class="cls-1" d="M66.34,85.87H26.19V23.12H66.34v8.56H35.78V50H61.86v8.48H35.78V77.3H66.34Z"/><path class="cls-1" d="M115.2,54.06V57.2a87.92,87.92,0,0,1-.39,8.87A29.15,29.15,0,0,1,113,73.51a18.22,18.22,0,0,1-4.2,6.46q-5.91,5.9-16.24,5.9H70.52V23.12H92.58q10.33,0,16.24,5.89A18.58,18.58,0,0,1,113,35.3a26.73,26.73,0,0,1,1.79,7.1,80.15,80.15,0,0,1,.39,8.48Zm-9.52,0c0-3.61-.05-6.4-.17-8.36a24.68,24.68,0,0,0-.92-5.52,11,11,0,0,0-2.26-4.26c-2.59-2.84-6.14-4.26-10.68-4.26H80.12V77.3H91.65c4.57,0,8.12-1.4,10.68-4.21a12,12,0,0,0,2.79-6.67A99.72,99.72,0,0,0,105.68,54.08Z"/><path class="cls-1" d="M130,85.87h-9.6V23.12H130Z"/><path class="cls-1" d="M175.38,78.94a30,30,0,0,1-4.91,4,20.72,20.72,0,0,1-5.68,2.58,25.77,25.77,0,0,1-6.93.86,24.54,24.54,0,0,1-6.17-.75,22.14,22.14,0,0,1-5.58-2.3,23.14,23.14,0,0,1-4.73-3.62,18.81,18.81,0,0,1-4.22-6.41,26.32,26.32,0,0,1-1.59-7.38c-.2-2.66-.3-6.46-.3-11.43q0-5.72.15-9.08a42.43,42.43,0,0,1,.69-6.15A19.78,19.78,0,0,1,137.87,34a19.35,19.35,0,0,1,3.51-4.76,22.34,22.34,0,0,1,7.44-5,23.84,23.84,0,0,1,9-1.7,23.37,23.37,0,0,1,9.71,1.84,26.65,26.65,0,0,1,7.81,5.6l-6.33,6.42a21.93,21.93,0,0,0-5.21-4.05,12.92,12.92,0,0,0-6-1.24,13.6,13.6,0,0,0-5.18,1,11.58,11.58,0,0,0-6,5.5,14.5,14.5,0,0,0-1.07,3.55,37,37,0,0,0-.58,5.24q-.17,3-.16,8.05a83.35,83.35,0,0,0,.71,13.21,12.72,12.72,0,0,0,3,6.34,11.74,11.74,0,0,0,4.11,2.77,13.43,13.43,0,0,0,5.18,1,12.92,12.92,0,0,0,6-1.25,21.67,21.67,0,0,0,5.21-4Z"/><path class="cls-1" d="M188.9,85.87h-9.6V23.12h9.6Z"/><path class="cls-1" d="M307,85.47h-8.73l-29-44.15V85.47h-9.6V22.73h8.78l29,44.07V22.73H307Z"/><path class="cls-1" d="M354.7,85.47H314.54V22.73H354.7v8.56H324.14V49.58h26.08v8.48H324.14V76.91H354.7Z"/><path class="cls-1" d="M404.79,67.57a17.69,17.69,0,0,1-1.64,7.64,16.31,16.31,0,0,1-4.71,5.9,21.12,21.12,0,0,1-7.17,3.65,31.27,31.27,0,0,1-9,1.23,36.82,36.82,0,0,1-12.5-1.92A26.56,26.56,0,0,1,360,77.69l6.37-6.29A19.68,19.68,0,0,0,371,74.93a18.7,18.7,0,0,0,5.36,1.94,31.55,31.55,0,0,0,6.07.56q6.06,0,9.51-2.54a8.31,8.31,0,0,0,3.44-7.09,8.26,8.26,0,0,0-2.49-6.48,7.56,7.56,0,0,0-2.61-1.7,19.62,19.62,0,0,0-4.24-1l-7.4-1q-7.67-1.08-11.92-5-4.56-4.26-4.56-12A18.16,18.16,0,0,1,364.67,31,17,17,0,0,1,372,24.51a25.26,25.26,0,0,1,11.14-2.3A31.46,31.46,0,0,1,394,23.92a25.39,25.39,0,0,1,8.56,5.43l-6.11,6a15.81,15.81,0,0,0-4.05-2.91A17.83,17.83,0,0,0,388,31a27,27,0,0,0-5.12-.45,14,14,0,0,0-6.16,1.24,9.15,9.15,0,0,0-3.94,3.46,9.49,9.49,0,0,0-1.35,5.05,7.4,7.4,0,0,0,2.37,5.84,11.57,11.57,0,0,0,3.05,1.78,16.21,16.21,0,0,0,4,1.1L388,50.06a32,32,0,0,1,7,1.74,14.84,14.84,0,0,1,4.67,2.9Q404.79,59.18,404.79,67.57Z"/><path class="cls-2" d="M288.43,175.64H275.54l-12.79-18q-17.33,19.24-40.64,19.24a41.7,41.7,0,0,1-21.23-5.44,37.39,37.39,0,0,1-14.65-15.37,47.88,47.88,0,0,1-5.22-22.6,44.7,44.7,0,0,1,4.09-19.71,48.19,48.19,0,0,1,9.93-14A209.65,209.65,0,0,1,211.32,86.1q-4.27-5.76-7.44-10.88a55.37,55.37,0,0,1-5.22-11,36.37,36.37,0,0,1-2-12q0-12.76,7.85-21.55t19.09-8.79a24.27,24.27,0,0,1,13.52,4A28.51,28.51,0,0,1,246.88,37a33.38,33.38,0,0,1,3.63,15.43q0,15.69-15.24,27.51.45,0-9.8,7.63l37.83,52.93A59.74,59.74,0,0,0,268.06,130a56.69,56.69,0,0,0,2.31-11,144.08,144.08,0,0,0,.73-16.37H281q0,30.12-11.52,46.44ZM257.22,149.7,217,93.84q-9.61,7.64-14.2,11.87a40.61,40.61,0,0,0-8.16,11.09,33.92,33.92,0,0,0-3.59,16q0,15.06,8.62,24.48t22.23,9.41A43.24,43.24,0,0,0,239.21,163Q247.7,159.32,257.22,149.7Zm-16.6-97.28q0-8.79-4.86-14.54a15.67,15.67,0,0,0-24.17-.11,20.63,20.63,0,0,0-4.9,14,27.09,27.09,0,0,0,2.68,11.45Q212,69,219.66,79.93l3-2.36,3.09-2.45,1.58-1.26A50.1,50.1,0,0,0,237.22,64,19.43,19.43,0,0,0,240.62,52.42Z"/><path class="cls-2" d="M172.3,175.64h-6.83a15.9,15.9,0,0,1-8.56-2.19,13.89,13.89,0,0,1-5.28-5.77,17.59,17.59,0,0,1-1.75-7.85V128.61h-6.45v-8.75h6.45V102.63h11.43v17.23h11v8.75h-11v30.68q0,6.61,6.29,6.61h4.7Z"/><path class="cls-2" d="M321.1,175.64h-6.83a15.9,15.9,0,0,1-8.56-2.19,13.89,13.89,0,0,1-5.28-5.77,17.72,17.72,0,0,1-1.75-7.85V128.61h-6.45v-8.75h6.45V102.63h11.43v17.23h11v8.75h-11v30.68q0,6.61,6.29,6.61h4.7Z"/></svg>